<svg id="Layer_1" data-name="Layer 1" xmlns="http://www.w3.org/2000/svg" viewBox="0 0 700.26 336.42"><defs><style>.cls-1{fill:#e21d3a;}.cls-2{fill:#fff;}</style></defs><rect class="cls-1" x="552.46" y="14.9" width="85.61" height="85.61" rx="42.8"/><path class="cls-1" d="M464.43,395.85a19.08,19.08,0,0,0-8.76-9.14,26,26,0,0,0-7.78-2.53,88.75,88.75,0,0,0-11.48-.59H388.88a7.56,7.56,0,0,0-7.55,7.56V457h25.89V439.84H444c8.17,0,14-2.15,17.7-6.62,3.51-4.48,5.26-11.48,5.26-21.6A43.73,43.73,0,0,0,464.43,395.85Zm-23,22.58c-1.17,1.36-3.12,1.94-5.84,1.94H404.69V403.05h30.94c2.53,0,4.47.59,5.64,1.95,1.36,1.17,2,3.31,2,6C443.22,414.54,442.63,417.07,441.47,418.43Z" transform="translate(-185.23 -354.66)"/><path class="cls-1" d="M567.37,397a20.76,20.76,0,0,0-6.42-8.95,25,25,0,0,0-10.31-4.28,103.08,103.08,0,0,0-17.91-1.17H508c-7.78,0-13.82.39-17.71,1.17A26.45,26.45,0,0,0,480,387.88a20.92,20.92,0,0,0-6.62,9.14,48.29,48.29,0,0,0-1.75,14.4V430.3c0,5.64.58,9.92,1.95,13.43a18.07,18.07,0,0,0,6.42,8.75,28.37,28.37,0,0,0,10.12,4.29,131.32,131.32,0,0,0,18.09,1h24.52a130.3,130.3,0,0,0,17.91-1A25,25,0,0,0,561,452.48a22,22,0,0,0,6.42-9,45.76,45.76,0,0,0,1.76-13.81V410.64A44.47,44.47,0,0,0,567.37,397Zm-21.79,28c0,5.05-1.36,8.56-3.7,10.31-2.53,1.95-7.39,2.92-14.79,2.92H513.86c-7.4,0-12.26-1-14.79-2.73-2.53-1.94-3.7-5.25-3.7-10.31V415.7c0-5.25,1.17-8.75,3.5-10.7,2.34-1.75,7.2-2.72,14.79-2.72h13.43c7.4,0,12.26,1,14.79,2.72,2.34,1.95,3.7,5.26,3.7,10.31Z" transform="translate(-185.23 -354.66)"/><path class="cls-1" d="M648,397a18.09,18.09,0,0,0-6.42-8.95c-2.53-2.14-6-3.5-10.31-4.28-3.89-.78-9.93-1.17-17.9-1.17H588.82c-8,0-13.82.39-17.91,1.17a27.72,27.72,0,0,0-10.31,4.09,20.53,20.53,0,0,0-6.42,9.14c-1.37,3.7-1.95,8.56-1.95,14.4V430.3a42.61,42.61,0,0,0,1.95,13.43,19.42,19.42,0,0,0,6.42,8.75,25.21,25.21,0,0,0,10.12,4.29,133.53,133.53,0,0,0,18.1,1h24.52a135.54,135.54,0,0,0,18.09-1,25.21,25.21,0,0,0,10.12-4.29,19,19,0,0,0,6.42-9,45.17,45.17,0,0,0,1.95-13.81V410.64A43.9,43.9,0,0,0,648,397Zm-21.79,28c0,5.05-1.17,8.56-3.7,10.31q-3.5,2.92-14.59,2.92H594.46c-7.4,0-12.26-1-14.79-2.73-2.34-1.94-3.7-5.25-3.7-10.31V415.7c0-5.25,1.17-8.75,3.5-10.7,2.34-1.75,7.4-2.72,15-2.72h13.43c7.39,0,12.26,1,14.59,2.72,2.53,1.95,3.7,5.26,3.7,10.31Z" transform="translate(-185.23 -354.66)"/><path class="cls-1" d="M727.48,435.55V457H663.42a7.55,7.55,0,0,1-7.55-7.55V383.59h25.88V428a7.55,7.55,0,0,0,7.55,7.55Z" transform="translate(-185.23 -354.66)"/><path class="cls-1" d="M367,513.73v61.13H475.19v.8c.4,3.62.8,6.44.8,8,0,11.67-4.83,20.11-14.88,24.94s-28.15,7.24-54.69,7.24H353.33c-29.36,0-49.06-4-59.12-12.47-10-8-14.88-22.92-14.88-44.64V517c0-24.54,4.43-40.22,13.27-47.86,8.45-7.64,28.56-11.26,60.33-11.26h14.48V382.62H327.19c-53.89,0-90.89,8.45-111.4,25.34-20.51,17.29-30.56,47.45-30.56,90.49v82c0,21.31,2.41,39,8,53.08a83.88,83.88,0,0,0,26.54,35c10.46,8.45,22.93,14.08,38.21,17.3,14.88,3.61,38.2,5.22,69.57,5.22H429.74q78.42,0,109.79-18.09c20.92-11.67,31.37-32.18,31.37-60.33V513.73Z" transform="translate(-185.23 -354.66)"/><path class="cls-1" d="M670.48,474.86H804.4a81.32,81.32,0,0,1,81.08,81.08v54a81.32,81.32,0,0,1-81.08,81.09H670.48A81.32,81.32,0,0,1,589.4,610v-54A81.32,81.32,0,0,1,670.48,474.86ZM730.69,637h53.16A34.16,34.16,0,0,0,817.91,603V563a34.15,34.15,0,0,0-34.06-34H691a34.13,34.13,0,0,0-34,34v40A34.14,34.14,0,0,0,691,637Z" transform="translate(-185.23 -354.66)"/><path class="cls-2" d="M803.72,437.47H791.59l-3.53-4.38c-3,3-7,5.74-14.71,5.74-9.85,0-16.09-7-16.09-14.65,0-4.95,1.38-9.83,9.91-15l1.08-.65c-2.15-2.44-4.67-6.32-4.67-10.77,0-7,5.68-11.85,13.71-11.85,5.69,0,12.64,3.67,12.64,11.93,0,7.24-6.46,11.05-8.53,12.27l7.32,9.05a18.09,18.09,0,0,0,2.65-8.47h8.9c-.64,7-2.44,11-5.89,15.51Zm-30.3-22.55c-4.23,3.09-6.1,4.53-6.1,8.62,0,2,1.58,6.82,7.61,6.82,3.31,0,6.25-2,8-3.59Zm3.53-21.4a4,4,0,0,0-4.18,4.17c0,1.73,1.29,3.81,3.74,6.47,2.72-1.73,4.74-3.74,4.74-6.4A3.94,3.94,0,0,0,777,393.52Z" transform="translate(-185.23 -354.66)"/><path class="cls-1" d="M780.49,354.66a55.17,55.17,0,0,0-48.94,29.81h7.69a48.22,48.22,0,0,1,82.49,0h7.69A55.17,55.17,0,0,0,780.49,354.66Z" transform="translate(-185.23 -354.66)"/></svg>